<?xml version="1.0" encoding="UTF-8"?>
<svg version="1.1" xmlns="http://www.w3.org/2000/svg" width="500" height="500">
<path d="M0 0 C0 0.66 0 1.32 0 2 C0.58007812 2.26941406 1.16015625 2.53882812 1.7578125 2.81640625 C9.82273116 7.07367168 14.47692179 13.75793629 18 22 C18.57629347 24.16303873 19.13903024 26.32973927 19.6875 28.5 C20.51456486 31.52339508 20.51456486 31.52339508 22 34 C24.66760473 35.40162282 27.00658608 35.86561847 29.97265625 36.36328125 C36.23057555 37.67946299 41.72946022 41.48630681 47 45 C47 45.66 47 46.32 47 47 C47.66 47 48.32 47 49 47 C49 47.66 49 48.32 49 49 C49.58523438 49.19851562 50.17046875 49.39703125 50.7734375 49.6015625 C56.32638255 53.08920167 59.14025068 62.03422608 60.9296875 68.20703125 C63.11416856 79.62318914 61.82784299 90.38935207 55.54296875 100.296875 C53.02032591 103.79664279 50.6324678 106.60520772 47 109 C46.34 109 45.68 109 45 109 C45 109.66 45 110.32 45 111 C37.6372789 115.02865871 30.33412175 116.97654209 22.1953125 118.8984375 C0.34528919 124.10145444 -20.57303512 133.39798241 -33.73046875 152.41796875 C-34.14941406 152.94003906 -34.56835938 153.46210938 -35 154 C-35.66 154 -36.32 154 -37 154 C-37.66 155.65 -38.32 157.3 -39 159 C-39.66 159 -40.32 159 -41 159 C-41.23460937 159.65355469 -41.46921875 160.30710937 -41.7109375 160.98046875 C-43.39755459 164.93124152 -45.49426475 168.58704258 -47.625 172.3125 C-48.25535156 173.42334961 -48.25535156 173.42334961 -48.8984375 174.55664062 C-49.92948495 176.37269011 -50.96436046 178.18656533 -52 180 C-52.66 180 -53.32 180 -54 180 C-54.103125 180.70125 -54.20625 181.4025 -54.3125 182.125 C-55.09359003 185.39137647 -56.42058743 188.0471852 -58 191 C-58.66 191 -59.32 191 -60 191 C-59.55967255 185.76242088 -58.95780236 180.62091883 -57.98828125 175.453125 C-55.25377211 159.20104232 -55.87675875 142.63228519 -60.7109375 126.890625 C-64.41231908 113.92813483 -64.31248917 100.50315632 -64.30078125 87.14453125 C-64.30468039 85.26657519 -64.30901751 83.38862 -64.31376648 81.51066589 C-64.32117088 77.60188924 -64.32097824 73.69320304 -64.31567383 69.78442383 C-64.30986338 64.80527777 -64.32687647 59.82650179 -64.3500185 54.84741688 C-64.364825 50.97895692 -64.36561857 47.11058495 -64.36250877 43.24210167 C-64.36301773 41.40710399 -64.36817439 39.57210082 -64.37832069 37.73713112 C-64.44533804 23.93534264 -64.29302219 11.11379245 -55 0 C-40.20855438 -14.41217779 -16.12269488 -8.15106037 0 0 Z " fill="#647CFA" transform="translate(319,104)"/>
<path d="M0 0 C7.41339547 8.36383078 9.74681488 16.64730512 9.7121582 27.66601562 C9.71726913 28.5193045 9.72238007 29.37259338 9.72764587 30.2517395 C9.74146442 33.05331584 9.7405898 35.85464376 9.73828125 38.65625 C9.74217469 40.62430918 9.74651068 42.59236752 9.75126648 44.5604248 C9.75871381 48.6825635 9.75844986 52.80461656 9.75317383 56.92675781 C9.74740564 62.1668992 9.76425316 67.40668407 9.7875185 72.64676666 C9.8023772 76.71356196 9.80311077 80.78027403 9.80000877 84.84709167 C9.80051672 86.77647096 9.80565362 88.70585557 9.81582069 90.63520813 C9.88446248 105.49194755 8.09049456 118.81139585 4.25 133.1875 C0.50415516 148.87727875 1.37935805 165.65346647 4.78125 181.32421875 C5.4021094 184.56525265 5.55874827 187.46114055 5.4375 190.75 C4.7775 190.75 4.1175 190.75 3.4375 190.75 C2.76341692 189.48308493 2.09849503 188.21129251 1.4375 186.9375 C1.06625 186.22980469 0.695 185.52210938 0.3125 184.79296875 C-0.5625 182.75 -0.5625 182.75 -0.5625 179.75 C-1.2225 179.75 -1.8825 179.75 -2.5625 179.75 C-3.3978125 178.20892578 -3.3978125 178.20892578 -4.25 176.63671875 C-10.67680444 164.91007161 -17.6386434 154.49731482 -26.875 144.74609375 C-28.5625 142.75 -28.5625 142.75 -28.5625 140.75 C-29.13871094 140.48703125 -29.71492188 140.2240625 -30.30859375 139.953125 C-32.6867709 138.68366475 -34.55238002 137.22008088 -36.625 135.5 C-41.62866191 131.55920745 -46.86047287 128.56581587 -52.5625 125.75 C-53.43003906 125.3065625 -54.29757813 124.863125 -55.19140625 124.40625 C-62.56837904 120.96436227 -70.00725938 119.59118393 -77.96411133 118.203125 C-84.1989976 117.09199069 -89.8788683 115.62198375 -95.5625 112.75 C-96.30371094 112.38132812 -97.04492188 112.01265625 -97.80859375 111.6328125 C-98.38738281 111.34148437 -98.96617187 111.05015625 -99.5625 110.75 C-99.5625 110.09 -99.5625 109.43 -99.5625 108.75 C-100.614375 108.4715625 -100.614375 108.4715625 -101.6875 108.1875 C-108.12812084 104.96718958 -112.04569627 98.33240974 -114.5625 91.75 C-117.50770412 80.43729543 -116.42254332 66.8803578 -110.875 56.6328125 C-109.20294209 53.89481768 -107.57106298 51.25223389 -105.5625 48.75 C-104.9025 48.75 -104.2425 48.75 -103.5625 48.75 C-103.5625 48.09 -103.5625 47.43 -103.5625 46.75 C-102.9025 46.75 -102.2425 46.75 -101.5625 46.75 C-101.5625 46.09 -101.5625 45.43 -101.5625 44.75 C-99.515625 43.3125 -99.515625 43.3125 -96.8125 41.75 C-95.48992187 40.9765625 -95.48992187 40.9765625 -94.140625 40.1875 C-93.28984375 39.713125 -92.4390625 39.23875 -91.5625 38.75 C-90.89863281 38.37230469 -90.23476562 37.99460938 -89.55078125 37.60546875 C-87.18720438 36.58852703 -85.0508032 36.35874713 -82.5 36.0625 C-79.86720626 35.63024546 -79.86720626 35.63024546 -77.5625 34.75 C-75.87467797 32.08215228 -75.28721919 30.68181853 -74.5625 27.75 C-74.00777654 26.10152935 -73.44519034 24.45568489 -72.875 22.8125 C-72.43447995 21.45931276 -71.99588746 20.10548844 -71.5625 18.75 C-70.9025 18.75 -70.2425 18.75 -69.5625 18.75 C-69.48 18.21375 -69.3975 17.6775 -69.3125 17.125 C-68.28668729 13.87659309 -66.59686106 11.46248141 -64.5625 8.75 C-63.9025 8.75 -63.2425 8.75 -62.5625 8.75 C-62.5625 8.09 -62.5625 7.43 -62.5625 6.75 C-46.20769862 -8.24926829 -18.1596878 -15.94509173 0 0 Z " fill="#846BFA" transform="translate(235.5625,104.25)"/>
<path d="M0 0 C1.0928833 -0.01393799 2.1857666 -0.02787598 3.31176758 -0.04223633 C11.71424437 0.0066485 18.88957039 1.73402346 26.8125 4.375 C26.8125 5.035 26.8125 5.695 26.8125 6.375 C27.4725 6.375 28.1325 6.375 28.8125 6.375 C29.14870539 16.18721649 28.97938261 24.95896354 25.8125 34.375 C25.43351563 35.53386719 25.05453125 36.69273437 24.6640625 37.88671875 C22.01816579 45.20499374 18.69750439 51.56490221 14.3125 58 C13.63670898 58.99435059 13.63670898 58.99435059 12.94726562 60.00878906 C9.99113514 64.16997996 6.93716635 67.35101709 2.8125 70.375 C2.1525 70.375 1.4925 70.375 0.8125 70.375 C0.8125 71.035 0.8125 71.695 0.8125 72.375 C-1.24677956 73.36092155 -3.31006688 74.33847494 -5.375 75.3125 C-6.52355469 75.85777344 -7.67210937 76.40304687 -8.85546875 76.96484375 C-20.11710675 81.73090626 -33.67441925 79.61879602 -45.4375 77.875 C-67.01136222 74.71282141 -86.36493258 76.56993538 -104.34375 89.67578125 C-106.04577573 91.05256356 -107.72486045 92.45877531 -109.3671875 93.90625 C-111.1875 95.375 -111.1875 95.375 -113.1875 95.375 C-112.61008722 90.02523584 -111.32392882 85.44114987 -109.375 80.4375 C-109.10800293 79.73818359 -108.84100586 79.03886719 -108.56591797 78.31835938 C-106.70492724 73.51536947 -104.64288971 68.90802715 -102.1875 64.375 C-101.5275 64.375 -100.8675 64.375 -100.1875 64.375 C-100.08566406 63.83359375 -99.98382813 63.2921875 -99.87890625 62.734375 C-99.00992393 59.76903419 -97.63277709 57.31975054 -96.125 54.625 C-95.57714844 53.64015625 -95.02929688 52.6553125 -94.46484375 51.640625 C-94.04332031 50.89296875 -93.62179687 50.1453125 -93.1875 49.375 C-92.5275 49.375 -91.8675 49.375 -91.1875 49.375 C-90.9915625 48.70082031 -90.795625 48.02664063 -90.59375 47.33203125 C-88.642534 43.22905761 -85.79591832 40.33611626 -82.6875 37.0625 C-82.09324219 36.41732422 -81.49898438 35.77214844 -80.88671875 35.10742188 C-77.598311 31.60003437 -77.598311 31.60003437 -76.1875 30.375 C-75.5275 30.375 -74.8675 30.375 -74.1875 30.375 C-74.1875 29.715 -74.1875 29.055 -74.1875 28.375 C-60.41951185 16.6511673 -44.57652371 8.22642347 -27.1875 3.375 C-26.15367187 3.05660156 -25.11984375 2.73820313 -24.0546875 2.41015625 C-16.06350171 0.27982785 -8.23747128 0.06773379 0 0 Z " fill="#5D7FFA" transform="translate(376.1875,224.625)"/>
<path d="M0 0 C0 0.66 0 1.32 0 2 C1.65 2.66 3.3 3.32 5 4 C5 4.66 5 5.32 5 6 C5.61875 6.309375 6.2375 6.61875 6.875 6.9375 C8.25 7.625 9.625 8.3125 11 9 C11 9.66 11 10.32 11 11 C11.54398437 11.21011719 12.08796875 11.42023438 12.6484375 11.63671875 C15.86911499 13.5038557 18.15364642 16.08013447 20.625 18.8125 C21.11484375 19.33392578 21.6046875 19.85535156 22.109375 20.39257812 C24.87205723 23.41567712 26.768753 26.08173748 28 30 C28.66 30 29.32 30 30 30 C50.64848686 65.29014119 50.64848686 65.29014119 50 76 C46.64636205 74.48195603 43.96525763 72.50236532 41.0625 70.25 C22.23843182 56.51217011 2.23039753 55.46101161 -20.02075195 58.92114258 C-33.51942792 60.93782107 -46.43993318 61.34103174 -59 55.375 C-59.94875 54.92898438 -60.8975 54.48296875 -61.875 54.0234375 C-62.57625 53.68570313 -63.2775 53.34796875 -64 53 C-64 52.34 -64 51.68 -64 51 C-64.59296875 50.72800781 -65.1859375 50.45601563 -65.796875 50.17578125 C-77.07245449 44.15814042 -84.55073583 28.59256632 -88.484375 16.84375 C-88.92057511 15.4000843 -89.34211914 13.95192093 -89.75 12.5 C-89.9668042 11.73187988 -90.1836084 10.96375977 -90.40698242 10.17236328 C-92.42762449 2.40947156 -92.48803274 -5.03964368 -92 -13 C-91.34 -13 -90.68 -13 -90 -13 C-90 -13.66 -90 -14.32 -90 -15 C-88.41701974 -15.4803318 -86.83360022 -15.95921612 -85.25 -16.4375 C-84.36828125 -16.70433594 -83.4865625 -16.97117188 -82.578125 -17.24609375 C-54.32670978 -25.50749244 -24.19331694 -14.20042516 0 0 Z " fill="#8C67FA" transform="translate(187,244)"/>
<path d="M0 0 C0 0.66 0 1.32 0 2 C0.66 2 1.32 2 2 2 C2 2.66 2 3.32 2 4 C2.88945312 4.32677734 2.88945312 4.32677734 3.796875 4.66015625 C8.41684428 7.46981842 10.19554661 13.10469258 12 18 C14.10121522 29.30579234 9.1921653 40.15757052 2.96875 49.34765625 C-6.17891528 61.6715942 -17.76941919 71.30108168 -31 79 C-31.65097656 79.38800781 -32.30195313 79.77601563 -32.97265625 80.17578125 C-44.76851088 86.66224908 -59.68613367 89.59581831 -72.90234375 86.26953125 C-81.52093051 82.75613066 -85.49083476 76.30052546 -89 68 C-93.40551512 52.80714879 -89.7552087 33.42602291 -83.1875 19.375 C-74.98077889 4.52083478 -62.07657099 -1.91357157 -46.375 -6.8203125 C-30.16970596 -10.70739317 -14.6311507 -7.28677387 0 0 Z " fill="#657DFA" transform="translate(347,315)"/>
<path d="M0 0 C8.20554873 6.81327151 11.85769041 14.56817473 15.125 24.625 C15.44726562 25.59953125 15.76953125 26.5740625 16.1015625 27.578125 C19.7333333 40.54388616 20.82496052 57.14531518 14.54296875 69.41015625 C10.55156476 75.6446633 5.1094792 79.29684027 -1.875 81.625 C-24.44761953 83.13810966 -43.27759685 74.48584095 -60.2578125 59.7421875 C-69.22659957 51.72202214 -69.22659957 51.72202214 -71.875 47.625 C-71.875 46.965 -71.875 46.305 -71.875 45.625 C-72.535 45.625 -73.195 45.625 -73.875 45.625 C-75.17535771 43.27528386 -76.46529469 40.92075663 -77.75 38.5625 C-78.11480469 37.90572266 -78.47960937 37.24894531 -78.85546875 36.57226562 C-82.99987492 28.92395242 -85.19543367 21.34441546 -83.875 12.625 C-79.97007402 1.8991319 -79.97007402 1.8991319 -75.671875 -0.71484375 C-75.07890625 -0.93269531 -74.4859375 -1.15054687 -73.875 -1.375 C-73.875 -2.035 -73.875 -2.695 -73.875 -3.375 C-51.93737752 -19.81676716 -21.13828685 -15.4404458 0 0 Z " fill="#826BFA" transform="translate(224.875,320.375)"/>
<path d="M0 0 C0.33 0 0.66 0 1 0 C1.01030746 1.09136765 1.02061493 2.18273529 1.03123474 3.30717468 C1.12899081 13.59225755 1.23172704 23.87728022 1.33933926 34.16226482 C1.39450363 39.4498711 1.44791325 44.73748297 1.49731445 50.02514648 C1.54505367 55.12801182 1.5973999 60.23081101 1.65294075 65.33359718 C1.67332101 67.28041753 1.69204116 69.22725599 1.70907402 71.17410851 C1.73321395 73.90088823 1.76325529 76.62754387 1.79467773 79.35424805 C1.8004332 80.15913666 1.80618866 80.96402527 1.81211853 81.79330444 C1.8626989 85.65481882 2.11524287 89.24028153 3 93 C3.21359588 95.101678 3.40047833 97.2062183 3.5625 99.3125 C3.64628906 100.38113281 3.73007812 101.44976562 3.81640625 102.55078125 C3.87699219 103.35902344 3.93757813 104.16726562 4 105 C4.33 105 4.66 105 5 105 C5 108.96 5 112.92 5 117 C2.68541138 113.52811707 2.22055569 110.89996869 1.4375 106.8125 C1.18871094 105.54019531 0.93992187 104.26789063 0.68359375 102.95703125 C-0.55649835 96.02195333 -1.14794403 89.31019273 -1.12939453 82.27661133 C-1.13114685 81.44466751 -1.13289917 80.61272369 -1.13470459 79.75556946 C-1.13907285 77.03103493 -1.13620375 74.30656633 -1.1328125 71.58203125 C-1.13348679 69.67730192 -1.13445786 67.77257267 -1.13571167 65.86784363 C-1.13718166 61.88788021 -1.13505585 57.90793931 -1.13037109 53.92797852 C-1.12466256 48.83036166 -1.12796434 43.73279733 -1.13394356 38.63518238 C-1.13755809 34.70696111 -1.13640667 30.77875228 -1.13381577 26.85053062 C-1.13314957 24.97067954 -1.13396416 23.09082731 -1.13629532 21.21097755 C-1.13883773 18.58568959 -1.13495931 15.96048671 -1.12939453 13.33520508 C-1.13141876 12.5615863 -1.13344299 11.78796753 -1.13552856 10.99090576 C-1.1206685 7.20225173 -0.91551581 3.68327702 0 0 Z " fill="#B4B8F1" transform="translate(256,120)"/>
<path d="M0 0 C0.66 0.33 1.32 0.66 2 1 C2 1.66 2 2.32 2 3 C2.66 3.66 3.32 4.32 4 5 C3.67 5.66 3.34 6.32 3 7 C2.21625 7.144375 1.4325 7.28875 0.625 7.4375 C-2.39271823 8.08415391 -3.15988602 8.57439521 -5 11 C-5.45375 12.03125 -5.9075 13.0625 -6.375 14.125 C-6.91125 15.07375 -7.4475 16.0225 -8 17 C-9.66666667 17.33333333 -11.33333333 17.66666667 -13 18 C-14.69280737 20.63121229 -14.69280737 20.63121229 -16 24 C-16.70502794 25.3142785 -17.41350254 26.62671256 -18.125 27.9375 C-20.00622217 31.66404315 -20.65456779 34.85481348 -21 39 C-21.99 39 -22.98 39 -24 39 C-24.20625 39.9075 -24.4125 40.815 -24.625 41.75 C-26.3204079 45.75732776 -28.27549784 46.89484661 -32 49 C-30.64475824 43.57903298 -28.63365987 38.9221313 -26 34 C-25.34 34 -24.68 34 -24 34 C-23.89816406 33.45859375 -23.79632813 32.9171875 -23.69140625 32.359375 C-22.82242393 29.39403419 -21.44527709 26.94475054 -19.9375 24.25 C-19.38964844 23.26515625 -18.84179688 22.2803125 -18.27734375 21.265625 C-17.85582031 20.51796875 -17.43429687 19.7703125 -17 19 C-16.34 19 -15.68 19 -15 19 C-14.80664062 18.32582031 -14.61328125 17.65164063 -14.4140625 16.95703125 C-12.44142353 12.83192711 -9.52727588 9.95764945 -6.375 6.6875 C-5.45847656 5.71973633 -5.45847656 5.71973633 -4.5234375 4.73242188 C-3.02189664 3.1487655 -1.51406957 1.57166659 0 0 Z " fill="#B6BDF2" transform="translate(300,255)"/>
<path d="M0 0 C7.43528674 8.72059889 16.70783989 25.30991705 16 37 C11.49542978 34.95919706 7.7824459 31.93465994 3.8515625 28.97265625 C1.00173739 27.00120189 -1.86830659 25.47346637 -5 24 C-1.696686 23.11064623 1.62294375 22.53725895 5 22 C5.54372951 18.94152152 6 16.11227195 6 13 C5.01 12.67 4.02 12.34 3 12 C3.33 11.01 3.66 10.02 4 9 C3.34 9 2.68 9 2 9 C0.50178941 5.62902617 0 3.79557881 0 0 Z " fill="#9589F3" transform="translate(221,283)"/>
<path d="M0 0 C0.33 0 0.66 0 1 0 C1 9.24 1 18.48 1 28 C1.66 28 2.32 28 3 28 C4.625 30.5 4.625 30.5 6 33 C6.99 32.505 6.99 32.505 8 32 C8.33623796 33.2909136 8.66889249 34.58276097 9 35.875 C9.185625 36.59429687 9.37125 37.31359375 9.5625 38.0546875 C10 40 10 40 10 42 C10.928125 41.79375 11.85625 41.5875 12.8125 41.375 C16 41 16 41 19 43 C19 43.66 19 44.32 19 45 C27.91 44.67 36.82 44.34 46 44 C41.91641043 48.08358957 35.26574189 48.26364364 29.70800781 48.38012695 C20.73171613 48.35867701 14.52815733 47.49903066 7.25 41.875 C2.29405254 35.54240046 -1.12116467 28.51787942 -1.1328125 20.41015625 C-1.13410156 19.54326172 -1.13539063 18.67636719 -1.13671875 17.78320312 C-1.13285156 16.88537109 -1.12898438 15.98753906 -1.125 15.0625 C-1.12886719 14.16853516 -1.13273437 13.27457031 -1.13671875 12.35351562 C-1.1304223 8.11285903 -1.08681103 4.13160703 0 0 Z " fill="#717AE7" transform="translate(258,354)"/>
<path d="M0 0 C0.33 0.99 0.66 1.98 1 3 C1.66 3 2.32 3 3 3 C4.66419952 6.32839905 4.28711285 10.06931418 4.38671875 13.734375 C4.41224319 14.60515686 4.43776764 15.47593872 4.46406555 16.37310791 C4.51612617 18.21904562 4.56554678 20.06505937 4.61254883 21.91113281 C4.68684158 24.72506172 4.77761339 27.53814847 4.86914062 30.3515625 C4.91768488 32.14580607 4.96524253 33.94007667 5.01171875 35.734375 C5.04077805 36.57208435 5.06983734 37.4097937 5.09977722 38.27288818 C5.25349323 45.47529421 3.34384332 50.61629911 0 57 C-0.66 57 -1.32 57 -2 57 C-1.56064911 51.77403683 -0.95905399 46.65283742 0.02734375 41.5 C1.17388924 34.72305989 1.26046547 28.10875375 1.1875 21.25 C1.18685547 20.08339844 1.18621094 18.91679687 1.18554688 17.71484375 C1.15500003 11.72087352 0.91220966 5.92571393 0 0 Z " fill="#7882E7" transform="translate(261,238)"/>
<path d="M0 0 C0 0.33 0 0.66 0 1 C-0.71285156 1.03738281 -1.42570312 1.07476562 -2.16015625 1.11328125 C-8.63901689 1.50643033 -8.63901689 1.50643033 -14.75 3.5 C-18 5 -18 5 -21.8125 5.5 C-23.3903125 5.7475 -23.3903125 5.7475 -25 6 C-25.99 7.485 -25.99 7.485 -27 9 C-26.01 10.32 -25.02 11.64 -24 13 C-24.33 13.66 -24.66 14.32 -25 15 C-27.64 15 -30.28 15 -33 15 C-33.33 16.98 -33.66 18.96 -34 21 C-34.99 21 -35.98 21 -37 21 C-37.33 21.66 -37.66 22.32 -38 23 C-37.63657077 15.91313008 -33.5032307 10.4390453 -28.5625 5.625 C-19.40029388 -0.18517949 -10.4958389 -0.15511092 0 0 Z " fill="#7980F3" transform="translate(295,96)"/>
<path d="M0 0 C-3.92056046 2.61370697 -5.44326581 1.76652293 -10 1 C-12.34141176 0.92310499 -14.6846928 0.89193197 -17.02734375 0.90234375 C-18.95610352 0.90717773 -18.95610352 0.90717773 -20.92382812 0.91210938 C-22.26171945 0.92046198 -23.59961007 0.92892689 -24.9375 0.9375 C-26.30273274 0.94252341 -27.66796726 0.94708483 -29.03320312 0.95117188 C-32.35551457 0.96291149 -35.67773408 0.97933321 -39 1 C-39 1.66 -39 2.32 -39 3 C-42.52948291 4.66670026 -44.28272326 5.13583456 -48 4 C-32.79328922 -4.47693239 -16.50869241 -5.25276577 0 0 Z " fill="#BBAEF2" transform="translate(204,310)"/>
<path d="M0 0 C0.99 0 1.98 0 3 0 C3 0.66 3 1.32 3 2 C5.475 2.99 5.475 2.99 8 4 C8 4.66 8 5.32 8 6 C8.928125 6.4640625 8.928125 6.4640625 9.875 6.9375 C11.25 7.625 12.625 8.3125 14 9 C14 9.66 14 10.32 14 11 C14.53625 11.20625 15.0725 11.4125 15.625 11.625 C18.87338889 13.5056462 21.91978735 15.83807678 24 19 C23.66796875 21.1953125 23.66796875 21.1953125 23 23 C20.66666667 20.66666667 18.33333333 18.33333333 16 16 C15.14341797 15.20529297 15.14341797 15.20529297 14.26953125 14.39453125 C13 13 13 13 13 11 C9.7 10.67 6.4 10.34 3 10 C2.67 8.68 2.34 7.36 2 6 C1.34 5.01 0.68 4.02 0 3 C0 2.01 0 1.02 0 0 Z " fill="#9882F0" transform="translate(184,244)"/>
<path d="M0 0 C1.16144531 -0.00773438 2.32289063 -0.01546875 3.51953125 -0.0234375 C4.63457031 -0.02085937 5.74960937 -0.01828125 6.8984375 -0.015625 C7.90310059 -0.01336914 8.90776367 -0.01111328 9.94287109 -0.00878906 C12.65606371 0.25299723 14.30569479 0.86103756 16.625 2.25 C14.89213745 2.32516846 14.89213745 2.32516846 13.12426758 2.40185547 C8.82809984 2.59055313 4.53253756 2.79085793 0.23706055 2.99462891 C-1.62021699 3.08111938 -3.4776429 3.16448402 -5.33520508 3.24462891 C-8.00908058 3.36054216 -10.68221652 3.48777918 -13.35546875 3.6171875 C-14.5963752 3.66732498 -14.5963752 3.66732498 -15.86235046 3.71847534 C-20.11220715 3.93569956 -23.48406807 4.3638078 -27.375 6.25 C-28.71932102 6.67807988 -30.07354121 7.07685086 -31.4375 7.4375 C-32.08847656 7.61667969 -32.73945313 7.79585937 -33.41015625 7.98046875 C-35.65898558 8.28895627 -37.22498772 7.92517089 -39.375 7.25 C-36.91869662 6.45154903 -34.46022298 5.66121129 -32 4.875 C-31.32066406 4.65328125 -30.64132812 4.4315625 -29.94140625 4.203125 C-19.879456 1.00586978 -10.56327299 -0.07177762 0 0 Z " fill="#AAC0F2" transform="translate(376.375,224.75)"/>
<path d="M0 0 C-1.03898437 0.4846875 -2.07796875 0.969375 -3.1484375 1.46875 C-10.8655029 5.15042171 -17.71013764 8.82927385 -24.1796875 14.53125 C-26 16 -26 16 -28 16 C-27.43179252 10.54520815 -26.05362055 6.08940744 -24 1 C-23.67 2.32 -23.34 3.64 -23 5 C-19.95086772 6.01111093 -19.95086772 6.01111093 -17 5 C-16.34 4.01 -15.68 3.02 -15 2 C-11.375 1.8125 -11.375 1.8125 -8 2 C-8 1.34 -8 0.68 -8 0 C-4.71303767 -0.79953138 -3.28976808 -1.09658936 0 0 Z " fill="#979CED" transform="translate(291,304)"/>
<path d="M0 0 C0.99 0.33 1.98 0.66 3 1 C3 1.66 3 2.32 3 3 C3.66 3 4.32 3 5 3 C5.19335938 3.56589844 5.38671875 4.13179688 5.5859375 4.71484375 C5.84632813 5.44832031 6.10671875 6.18179687 6.375 6.9375 C6.63023437 7.66839844 6.88546875 8.39929688 7.1484375 9.15234375 C7.85271413 11.18682116 7.85271413 11.18682116 10 12 C10.6328125 13.84765625 10.6328125 13.84765625 11.125 16.0625 C11.37636719 17.16271484 11.37636719 17.16271484 11.6328125 18.28515625 C11.75398437 18.85105469 11.87515625 19.41695313 12 20 C12.99 20 13.98 20 15 20 C15 16.37 15 12.74 15 9 C15.33 9 15.66 9 16 9 C16.5064814 11.70726366 17.005351 14.41557124 17.5 17.125 C17.64308594 17.88554687 17.78617188 18.64609375 17.93359375 19.4296875 C18.70312456 23.68042914 19.16644376 27.65859197 19 32 C18.34 32 17.68 32 17 32 C16.32591692 30.73308493 15.66099503 29.46129251 15 28.1875 C14.443125 27.12595703 14.443125 27.12595703 13.875 26.04296875 C13 24 13 24 13 21 C12.34 21 11.68 21 11 21 C9.53779721 18.43964079 8.08014847 15.8768644 6.625 13.3125 C6.2125 12.59126953 5.8 11.87003906 5.375 11.12695312 C3.31567728 7.48992349 1.41710948 3.94766212 0 0 Z " fill="#AFA9EC" transform="translate(222,263)"/>
<path d="M0 0 C1.32 0.33 2.64 0.66 4 1 C3.01 2.485 3.01 2.485 2 4 C5.49513683 5.54788566 8.49648244 6.32134944 12.30078125 6.6328125 C13.27724609 6.71660156 14.25371094 6.80039062 15.25976562 6.88671875 C16.26716797 6.96535156 17.27457031 7.04398437 18.3125 7.125 C19.33923828 7.21136719 20.36597656 7.29773438 21.42382812 7.38671875 C23.94872866 7.59810577 26.47399758 7.80229351 29 8 C25.30653993 10.46230671 22.40776453 10.38392536 18.125 10.375 C16.99130981 10.37367065 16.99130981 10.37367065 15.8347168 10.37231445 C6.40215209 10.1763622 -1.67273584 7.30550399 -10 3 C-6.8035914 1.93453047 -4.34252724 1.92572162 -1 2 C-0.67 1.34 -0.34 0.68 0 0 Z " fill="#B8AFED" transform="translate(197,392)"/>
<path d="M0 0 C-3.01031744 0.93423645 -3.86650268 1.04449911 -7 0 C-11.16129974 -0.31440578 -15.32825033 -0.32423756 -19.5 -0.375 C-20.634375 -0.41238281 -21.76875 -0.44976562 -22.9375 -0.48828125 C-30.17299385 -0.56295951 -35.2891498 0.4680044 -41.67773438 3.91943359 C-44 5 -44 5 -48 5 C-48 5.66 -48 6.32 -48 7 C-49.98 7 -51.96 7 -54 7 C-51.7282956 2.4565912 -42.7040056 0.64788432 -38 -1 C-25.68282933 -4.87628606 -12.14841897 -3.86540604 0 0 Z " fill="#C2CBF8" transform="translate(336,310)"/>
<path d="M0 0 C0 0.33 0 0.66 0 1 C-0.63389648 1.0501123 -1.26779297 1.10022461 -1.92089844 1.15185547 C-15.71401076 2.11458921 -15.71401076 2.11458921 -29.375 4.125 C-34.18600042 5.01383585 -38.87065601 5.21532019 -43.75 5.25 C-44.44786621 5.25918457 -45.14573242 5.26836914 -45.86474609 5.27783203 C-52.04146669 5.24117929 -57.76026145 4.49315904 -63 1 C-61.783125 0.979375 -60.56625 0.95875 -59.3125 0.9375 C-58.28576172 0.92009766 -58.28576172 0.92009766 -57.23828125 0.90234375 C-55 1 -55 1 -52.8515625 1.4921875 C-48.59451179 2.25029242 -44.37839495 2.19057345 -40.0625 2.1875 C-39.12390137 2.18814453 -38.18530273 2.18878906 -37.21826172 2.18945312 C-30.80676013 2.14107273 -24.70011309 1.52483901 -18.375 0.4453125 C-12.26630812 -0.36069546 -6.15094888 -0.15506594 0 0 Z " fill="#D1BEF3" transform="translate(194,299)"/>
<path d="M0 0 C0 0.99 0 1.98 0 3 C-0.70125 2.86722656 -1.4025 2.73445313 -2.125 2.59765625 C-15.05783847 0.19032083 -27.51612102 -1.20041897 -40.625 1 C-50.02693155 2.53810401 -59.5010941 2.17676178 -69 2 C-69 1.67 -69 1.34 -69 1 C-68.39937744 0.97494385 -67.79875488 0.9498877 -67.17993164 0.92407227 C-64.47388563 0.8084472 -61.76821717 0.68557064 -59.0625 0.5625 C-58.11697266 0.52318359 -57.17144531 0.48386719 -56.19726562 0.44335938 C-55.29814453 0.40146484 -54.39902344 0.35957031 -53.47265625 0.31640625 C-52.22367554 0.26141968 -52.22367554 0.26141968 -50.94946289 0.20532227 C-48.99661142 0.20632897 -48.99661142 0.20632897 -48 -1 C-32.45272283 -3.7861271 -15.49093843 -2.45401005 0 0 Z " fill="#886FE4" transform="translate(213,300)"/>
<path d="M0 0 C0.66 0 1.32 0 2 0 C2.53500774 15.61429991 -0.28232466 28.83487401 -7 43 C-7.99 43.495 -7.99 43.495 -9 44 C-8.67 41.03 -8.34 38.06 -8 35 C-7.34 35 -6.68 35 -6 35 C-6.061875 34.34 -6.12375 33.68 -6.1875 33 C-5.93182247 28.90915946 -4.54304956 25.79333016 -3 22 C-2.67 22 -2.34 22 -2 22 C-0.2958322 16.84053135 0.22225605 12.5574667 0.125 7.0625 C0.11146484 6.03672852 0.11146484 6.03672852 0.09765625 4.99023438 C0.07438958 3.32666713 0.03853167 1.66328369 0 0 Z " fill="#A5BAF0" transform="translate(403,231)"/>
<path d="M0 0 C-2.90669462 0.85305168 -5.31048873 1.07289715 -8.328125 0.87890625 C-9.12734375 0.83056641 -9.9265625 0.78222656 -10.75 0.73242188 C-11.575 0.67634766 -12.4 0.62027344 -13.25 0.5625 C-14.09046875 0.51029297 -14.9309375 0.45808594 -15.796875 0.40429688 C-17.8649352 0.27504311 -19.9325222 0.13825726 -22 0 C-22 0.66 -22 1.32 -22 2 C-22.94875 2.268125 -23.8975 2.53625 -24.875 2.8125 C-28.25267273 3.74986588 -28.25267273 3.74986588 -30 7 C-33 7.8125 -33 7.8125 -36 8 C-36.66 7.34 -37.32 6.68 -38 6 C-36.9375 4.0625 -36.9375 4.0625 -35 2 C-32.67750658 1.59802999 -30.34114367 1.27313343 -28 1 C-26.948125 0.484375 -25.89625 -0.03125 -24.8125 -0.5625 C-17.12533615 -4.0865032 -7.83498399 -2.08932907 0 0 Z " fill="#6E7AEF" transform="translate(305,99)"/>
<path d="M0 0 C0.495 0.99 0.495 0.99 1 2 C-2.75 3.125 -2.75 3.125 -5 2 C-7.25120742 1.91426606 -9.50499303 1.89287812 -11.7578125 1.90234375 C-12.42086395 1.9037587 -13.08391541 1.90517365 -13.76705933 1.90663147 C-15.88641863 1.91223246 -18.00567259 1.924785 -20.125 1.9375 C-21.56119639 1.94251488 -22.99739444 1.94707781 -24.43359375 1.95117188 C-27.95576345 1.96220218 -31.47787145 1.97946741 -35 2 C-27.92074801 -5.07925199 -8.84885726 -2.94961909 0 0 Z " fill="#A59AE7" transform="translate(227,98)"/>
<path d="M0 0 C0 0.66 0 1.32 0 2 C4.37523025 1.86061293 8.75011678 1.71235541 13.125 1.5625 C14.3625 1.52318359 15.6 1.48386719 16.875 1.44335938 C18.67324219 1.38051758 18.67324219 1.38051758 20.5078125 1.31640625 C21.60754395 1.27974854 22.70727539 1.24309082 23.84033203 1.20532227 C26.95129116 1.00316521 29.93644338 0.56710106 33 0 C28.60914301 4.39085699 21.26096463 4.29480672 15.375 4.3125 C4.81138246 4.29320352 -5.58623996 2.63900116 -16 1 C-10.85162827 -1.70624696 -5.57344657 -1.85781552 0 0 Z " fill="#B4C4F1" transform="translate(336,300)"/>
<path d="M0 0 C2 1 2 1 2.81640625 2.86328125 C6.41950811 14.69126484 7.30687807 25.86880975 1.89453125 37.34375 C1.59933594 37.8903125 1.30414063 38.436875 1 39 C-0.26815477 36.46369047 0.17979559 35.77189255 0.875 33.0625 C2.67122547 24.84598214 2.673191 16.37663062 3 8 C2.34 8 1.68 8 1 8 C0.67 5.36 0.34 2.72 0 0 Z " fill="#BFD1F8" transform="translate(375,163)"/>
<path d="M0 0 C6.57643545 5.76314493 9.4019665 15.42818646 10 24 C8.5 22.875 8.5 22.875 7 21 C6.8125 17.8125 6.8125 17.8125 7 15 C5.68 15 4.36 15 3 15 C0.9895973 10.85354444 0.91546096 7.56510839 1 3 C0.67 2.01 0.34 1.02 0 0 Z " fill="#9894F3" transform="translate(231,328)"/>
<path d="M0 0 C0.66 0 1.32 0 2 0 C1.49272737 3.88909014 0.85759854 7.67280652 0 11.5 C-1.18475509 17.36340576 -1.4428012 23.15798914 -1.625 29.125 C-1.66367188 30.176875 -1.70234375 31.22875 -1.7421875 32.3125 C-1.83536341 34.87483756 -1.92117382 37.43718779 -2 40 C-2.33 40 -2.66 40 -3 40 C-3.21828559 35.98063978 -3.414881 31.96084139 -3.59204102 27.93945312 C-3.65519673 26.57360993 -3.7241182 25.20801999 -3.79907227 23.84277344 C-3.90621362 21.8725231 -3.99043503 19.90106923 -4.07421875 17.9296875 C-4.13182373 16.74616699 -4.18942871 15.56264648 -4.2487793 14.34326172 C-3.9671377 10.55837457 -2.83957388 8.28443201 -1 5 C-0.30092586 2.26427415 -0.30092586 2.26427415 0 0 Z " fill="#BAB4F2" transform="translate(239,230)"/>
<path d="M0 0 C0.66 0.33 1.32 0.66 2 1 C2 1.66 2 2.32 2 3 C2.66 3.66 3.32 4.32 4 5 C3.67 5.66 3.34 6.32 3 7 C2.21625 7.144375 1.4325 7.28875 0.625 7.4375 C-2.39271823 8.08415391 -3.15988602 8.57439521 -5 11 C-6.04622875 12.97620986 -7.05439935 14.9737129 -8 17 C-8.99 16.67 -9.98 16.34 -11 16 C-8.11649879 9.54401942 -5.31972668 4.70115381 0 0 Z " fill="#8594F0" transform="translate(300,255)"/>
<path d="M0 0 C1.47906892 -0.02689216 2.95827483 -0.04634621 4.4375 -0.0625 C5.26121094 -0.07410156 6.08492187 -0.08570313 6.93359375 -0.09765625 C9 0 9 0 10 1 C11.51165654 1.39148761 13.03469632 1.73972457 14.5625 2.0625 C15.38878906 2.23910156 16.21507812 2.41570312 17.06640625 2.59765625 C17.70449219 2.73042969 18.34257812 2.86320313 19 3 C19 3.99 19 4.98 19 6 C20.98 6.66 22.96 7.32 25 8 C21.11744954 9.29418349 20.08983389 8.37795441 16.4375 6.6875 C11.00421821 4.30506219 5.85547437 2.86795748 0 2 C0 1.34 0 0.68 0 0 Z " fill="#B6A1F0" transform="translate(161,221)"/>
<path d="M0 0 C0.33 0 0.66 0 1 0 C2.19892826 5.34405079 2.18391368 10.48270069 2.1875 15.9375 C2.19974609 16.91396484 2.21199219 17.89042969 2.22460938 18.89648438 C2.23499056 24.00056601 2.04438866 28.22437274 0 33 C-0.33 33 -0.66 33 -1 33 C-0.67 22.11 -0.34 11.22 0 0 Z " fill="#AFAEF1" transform="translate(241,353)"/>
<path d="M0 0 C0.33 0 0.66 0 1 0 C3.83306025 14.8735663 3.83306025 14.8735663 1.125 19.4375 C0.42375 20.283125 -0.2775 21.12875 -1 22 C-1.66 22 -2.32 22 -3 22 C-2.37727768 14.5928819 -1.29512034 7.31805865 0 0 Z " fill="#B7BAEF" transform="translate(262,273)"/>
<path d="M0 0 C1 3 1 3 0 6 C-0.99 6 -1.98 6 -3 6 C-3.309375 7.36125 -3.309375 7.36125 -3.625 8.75 C-5.3204079 12.75732776 -7.27549784 13.89484661 -11 16 C-9.8705383 11.56903487 -8.8024693 7.66476754 -6 4 C-3.8125 3.1875 -3.8125 3.1875 -2 3 C-2 2.34 -2 1.68 -2 1 C-1.34 0.67 -0.68 0.34 0 0 Z " fill="#6C76F6" transform="translate(279,288)"/>
<path d="M0 0 C0.33 0 0.66 0 1 0 C1 9.24 1 18.48 1 28 C1.66 28 2.32 28 3 28 C3.52992692 29.45505358 4.0486789 30.91418127 4.5625 32.375 C4.85253906 33.18710937 5.14257812 33.99921875 5.44140625 34.8359375 C6 37 6 37 5 39 C4.18247697 37.41925436 3.37118003 35.83528777 2.5625 34.25 C2.11003906 33.36828125 1.65757812 32.4865625 1.19140625 31.578125 C-0.56239417 27.78301588 -1.1268237 24.57878535 -1.1328125 20.41015625 C-1.13410156 19.54326172 -1.13539063 18.67636719 -1.13671875 17.78320312 C-1.13285156 16.88537109 -1.12898438 15.98753906 -1.125 15.0625 C-1.12886719 14.16853516 -1.13273437 13.27457031 -1.13671875 12.35351562 C-1.1304223 8.11285903 -1.08681103 4.13160703 0 0 Z " fill="#C2C4F7" transform="translate(258,354)"/>
<path d="M0 0 C0.33 0 0.66 0 1 0 C2.19388403 23.58238484 2.19388403 23.58238484 2 35 C1.01 35 0.02 35 -1 35 C-1.66 33.02 -2.32 31.04 -3 29 C-1.68 28.67 -0.36 28.34 1 28 C0.83701416 27.45633789 0.67402832 26.91267578 0.50610352 26.35253906 C-0.08049219 23.62584529 -0.11249248 21.14858707 -0.09765625 18.359375 C-0.09282227 16.75449219 -0.09282227 16.75449219 -0.08789062 15.1171875 C-0.07951172 14.00601562 -0.07113281 12.89484375 -0.0625 11.75 C-0.05798828 10.62335938 -0.05347656 9.49671875 -0.04882812 8.3359375 C-0.03705397 5.55723783 -0.0206084 2.77864591 0 0 Z " fill="#7D73E8" transform="translate(235,248)"/>
<path d="M0 0 C6.6399184 2.94789481 10.19012165 8.89147625 13.53125 15.10546875 C14 17 14 17 13.09375 19.23828125 C12.55234375 20.11033203 12.55234375 20.11033203 12 21 C11.87625 19.576875 11.87625 19.576875 11.75 18.125 C11.5025 17.09375 11.255 16.0625 11 15 C9.06669397 13.90833725 9.06669397 13.90833725 7 13 C6.29788106 11.34795544 5.63028587 9.68076231 5 8 C4.01 7.34 3.02 6.68 2 6 C0.8125 2.875 0.8125 2.875 0 0 Z " fill="#A2B7F4" transform="translate(323,109)"/>
<path d="M0 0 C-0.33 0.99 -0.66 1.98 -1 3 C-2.32 3 -3.64 3 -5 3 C-5.66 4.32 -6.32 5.64 -7 7 C-7.66 7 -8.32 7 -9 7 C-9.66 8.65 -10.32 10.3 -11 12 C-13.97 11.505 -13.97 11.505 -17 11 C-13.47336688 5.54974882 -6.71379909 0 0 0 Z " fill="#9F87F0" transform="translate(192,100)"/>
<path d="M0 0 C3.23176706 3.76086166 5.57666017 7.69437159 7.75 12.125 C8.22373047 13.05505859 8.22373047 13.05505859 8.70703125 14.00390625 C10.1284163 16.8651359 11 18.76226613 11 22 C10.01 21.67 9.02 21.34 8 21 C6.5522078 18.10441559 6 16.25811062 6 13 C5.01 12.67 4.02 12.34 3 12 C3.33 11.01 3.66 10.02 4 9 C3.34 9 2.68 9 2 9 C0.50178941 5.62902617 0 3.79557881 0 0 Z " fill="#B2AAF1" transform="translate(221,283)"/>
<path d="M0 0 C3.78611227 0.54087318 5.55400767 2.11722332 8 5 C8 5.66 8 6.32 8 7 C10.97 7.99 13.94 8.98 17 10 C16.67 10.99 16.34 11.98 16 13 C13.61435923 12.42415568 11.33317216 11.77772405 9 11 C9 10.34 9 9.68 9 9 C8.2575 8.7525 7.515 8.505 6.75 8.25 C3.75026545 6.8864843 2.07922733 5.54127785 0 3 C0 2.01 0 1.02 0 0 Z " fill="#B297ED" transform="translate(127,204)"/>
<path d="M0 0 C0 0.33 0 0.66 0 1 C-0.71285156 1.03738281 -1.42570312 1.07476562 -2.16015625 1.11328125 C-8.63901689 1.50643033 -8.63901689 1.50643033 -14.75 3.5 C-18 5 -18 5 -21.75 5.4375 C-25.08855377 5.65771616 -25.08855377 5.65771616 -26.75 8.0625 C-27.1625 8.701875 -27.575 9.34125 -28 10 C-28.99 10 -29.98 10 -31 10 C-31 9.34 -31 8.68 -31 8 C-22.06840175 -0.39028927 -11.51073359 -0.17010936 0 0 Z " fill="#B9BFF3" transform="translate(295,96)"/>
<path d="M0 0 C1.98 0 3.96 0 6 0 C6 0.66 6 1.32 6 2 C15.50904899 2.32417212 24.61304896 1.33418593 34 0 C29.87330166 4.12669834 23.19942117 4.26627934 17.59570312 4.32226562 C16.88349609 4.31904297 16.17128906 4.31582031 15.4375 4.3125 C14.72142578 4.32861328 14.00535156 4.34472656 13.26757812 4.36132812 C8.13507147 4.36599829 4.59368712 3.28778898 0 1 C0 0.67 0 0.34 0 0 Z " fill="#C4CAF5" transform="translate(270,398)"/>
<path d="M0 0 C1.35439668 2.70879335 1.06501451 5.00933268 1 8 C0.01 8.495 0.01 8.495 -1 9 C-1.66 8.67 -2.32 8.34 -3 8 C-3.1546875 9.8253125 -3.1546875 9.8253125 -3.3125 11.6875 C-3.7762572 15.43730826 -4.7781764 17.88944696 -7 21 C-7.66 21.99 -8.32 22.98 -9 24 C-8.41654545 15.63715143 -5.3897844 6.47719704 0 0 Z " fill="#BEC1F4" transform="translate(268,328)"/>
<path d="M0 0 C1.13674891 3.41024674 0.69586793 5.52066036 0 9 C-0.09096767 12.00193305 -0.05887094 14.99758211 0 18 C0.33 18 0.66 18 1 18 C1.33 22.62 1.66 27.24 2 32 C-2.19987042 26.40017278 -2.18111695 21.9548602 -2.1875 15.125 C-2.19974609 14.44308594 -2.21199219 13.76117188 -2.22460938 13.05859375 C-2.23808054 8.34368481 -1.47921101 4.47855981 0 0 Z " fill="#E2CFFB" transform="translate(122,168)"/>
<path d="M0 0 C1.32 0 2.64 0 4 0 C4 3.52032428 3.29648649 4.4385343 1 7 C0.34 7 -0.32 7 -1 7 C-1.66 8.65 -2.32 10.3 -3 12 C-3.66 12 -4.32 12 -5 12 C-5.33 12.66 -5.66 13.32 -6 14 C-6.33 12.35 -6.66 10.7 -7 9 C-2.25 5 -2.25 5 0 5 C0 3.35 0 1.7 0 0 Z " fill="#9298F5" transform="translate(283,251)"/>
<path d="M0 0 C-3.68945165 3.32531582 -6.59205682 4.72269756 -11.4375 5.75 C-12.52933594 5.99234375 -13.62117188 6.2346875 -14.74609375 6.484375 C-17.89448409 6.98327959 -20.81892787 7.09595994 -24 7 C-24 6.67 -24 6.34 -24 6 C-22.35 6 -20.7 6 -19 6 C-19 5.34 -19 4.68 -19 4 C-16.77332235 3.32506659 -14.54354023 2.66036956 -12.3125 2 C-10.45044922 1.443125 -10.45044922 1.443125 -8.55078125 0.875 C-5.4989981 0.12296543 -3.11101638 -0.19034899 0 0 Z " fill="#9CB5F2" transform="translate(355,217)"/>
<path d="M0 0 C0.66 1.98 1.32 3.96 2 6 C-1.625 9 -1.625 9 -5 9 C-5 7.68 -5 6.36 -5 5 C-5.93283296 2.79932579 -5.93283296 2.79932579 -7 1 C-4.53721199 -0.231394 -2.7204945 -0.07159196 0 0 Z " fill="#5580F9" transform="translate(360,147)"/>
<path d="M0 0 C0.33 0.99 0.66 1.98 1 3 C-0.32021449 5.14572107 -1.63967824 7.0313419 -3.1875 9 C-3.58775391 9.53367187 -3.98800781 10.06734375 -4.40039062 10.6171875 C-6.66501341 13.56817084 -8.89471825 15.94408933 -12 18 C-12 16.35 -12 14.7 -12 13 C-10.68 12.67 -9.36 12.34 -8 12 C-7.67 10.35 -7.34 8.7 -7 7 C-5.68 6.67 -4.36 6.34 -3 6 C-3 4.68 -3 3.36 -3 2 C-2.01 2 -1.02 2 0 2 C0 1.34 0 0.68 0 0 Z " fill="#A1B8F1" transform="translate(352,357)"/>
<path d="M0 0 C0.33 0.99 0.66 1.98 1 3 C1.66 3 2.32 3 3 3 C4.37365621 5.74731243 4.0128639 7.81667064 3.87890625 10.8828125 C3.83056641 12.04941406 3.78222656 13.21601563 3.73242188 14.41796875 C3.67634766 15.64128906 3.62027344 16.86460937 3.5625 18.125 C3.51029297 19.35605469 3.45808594 20.58710938 3.40429688 21.85546875 C3.2743256 24.90388588 3.13934981 27.9519995 3 31 C2.67 31 2.34 31 2 31 C1.96241577 30.01773437 1.96241577 30.01773437 1.92407227 29.015625 C1.80707345 26.01026764 1.68482365 23.00514515 1.5625 20 C1.52318359 18.97003906 1.48386719 17.94007813 1.44335938 16.87890625 C1.20814561 11.19758925 0.80518623 5.62953732 0 0 Z " fill="#BDC0F4" transform="translate(261,238)"/>
<path d="M0 0 C3.97465309 0.58883749 6.14283607 2.21086379 9 5 C11.26385656 8.19664931 13.40803329 11.41508249 15 15 C14.67 15.99 14.34 16.98 14 18 C14 17.34 14 16.68 14 16 C13.01 15.67 12.02 15.34 11 15 C9.8125 11.9375 9.8125 11.9375 9 9 C8.01 9 7.02 9 6 9 C5.7525 8.443125 5.505 7.88625 5.25 7.3125 C3.78393985 4.60028873 1.97010529 2.36412635 0 0 Z " fill="#AFA9F0" transform="translate(228,100)"/>
<path d="M0 0 C1.32 0.33 2.64 0.66 4 1 C3.01 2.485 3.01 2.485 2 4 C2.33 4.99 2.66 5.98 3 7 C3.66 7.33 4.32 7.66 5 8 C-0.54050113 7.43174347 -5.03715966 5.37113483 -10 3 C-6.8035914 1.93453047 -4.34252724 1.92572162 -1 2 C-0.67 1.34 -0.34 0.68 0 0 Z " fill="#A090F2" transform="translate(197,392)"/>
<path d="M0 0 C0.66 0 1.32 0 2 0 C0.10280671 5.69157988 -2.8524154 10.52055283 -7.8125 13.9375 C-8.534375 14.288125 -9.25625 14.63875 -10 15 C-10 13.35 -10 11.7 -10 10 C-8.68 10 -7.36 10 -6 10 C-6 8.68 -6 7.36 -6 6 C-5.01 6 -4.02 6 -3 6 C-3 4.35 -3 2.7 -3 1 C-2.01 1.33 -1.02 1.66 0 2 C0 1.34 0 0.68 0 0 Z " fill="#8CA6EC" transform="translate(390,278)"/>
<path d="M0 0 C1.65 0.99 3.3 1.98 5 3 C4.42655063 5.86724686 4.1385485 6.8614515 2 9 C1.34 8.01 0.68 7.02 0 6 C-0.33 6.66 -0.66 7.32 -1 8 C-1.66 8 -2.32 8 -3 8 C-3.33 9.65 -3.66 11.3 -4 13 C-5.39049921 9.83977452 -4.90218951 8.72985675 -3.6875 5.375 C-2 2 -2 2 0 0 Z M1 3 C2 5 2 5 2 5 Z " fill="#A689F3" transform="translate(165,125)"/>
<path d="M0 0 C3.46528089 3.46528089 4.88505382 8.16086116 5.1875 13 C5.125625 13.66 5.06375 14.32 5 15 C1.83884224 13.63016497 1.0072908 13.0109362 -1 10 C-0.9765625 7.51953125 -0.9765625 7.51953125 -0.625 4.8125 C-0.51414063 3.91144531 -0.40328125 3.01039063 -0.2890625 2.08203125 C-0.19367188 1.39496094 -0.09828125 0.70789063 0 0 Z " fill="#AAA0EE" transform="translate(232,305)"/>
<path d="M0 0 C0.99 0.33 1.98 0.66 3 1 C3 1.66 3 2.32 3 3 C3.66 3 4.32 3 5 3 C5.19335938 3.56589844 5.38671875 4.13179688 5.5859375 4.71484375 C5.84632813 5.44832031 6.10671875 6.18179687 6.375 6.9375 C6.63023437 7.66839844 6.88546875 8.39929688 7.1484375 9.15234375 C7.85271413 11.18682116 7.85271413 11.18682116 10 12 C10.8515625 14.06640625 10.8515625 14.06640625 11.625 16.5625 C12.01558594 17.80193359 12.01558594 17.80193359 12.4140625 19.06640625 C12.60742188 19.70449219 12.80078125 20.34257812 13 21 C12.34 21 11.68 21 11 21 C9.53779721 18.43964079 8.08014847 15.8768644 6.625 13.3125 C6.2125 12.59126953 5.8 11.87003906 5.375 11.12695312 C3.31567728 7.48992349 1.41710948 3.94766212 0 0 Z " fill="#D8D4FB" transform="translate(222,263)"/>
<path d="M0 0 C1.98 0.99 1.98 0.99 4 2 C4 2.99 4 3.98 4 5 C4.639375 5.103125 5.27875 5.20625 5.9375 5.3125 C6.618125 5.539375 7.29875 5.76625 8 6 C8.33 6.99 8.66 7.98 9 9 C10.65948148 10.01187895 12.32580562 11.0126546 14 12 C14 12.66 14 13.32 14 14 C13.01 14 12.02 14 11 14 C11 13.34 11 12.68 11 12 C10.12601563 11.61134766 10.12601563 11.61134766 9.234375 11.21484375 C6.83656162 9.91113752 5.18243206 8.48254467 3.25 6.5625 C2.63640625 5.96566406 2.0228125 5.36882812 1.390625 4.75390625 C0 3 0 3 0 0 Z " fill="#B9A2ED" transform="translate(112,283)"/>
<path d="M0 0 C3.51149841 0.58395206 5.29031758 1.83279645 7.8125 4.3125 C8.43769531 4.90675781 9.06289062 5.50101562 9.70703125 6.11328125 C11 8 11 8 10.69921875 10.23046875 C10.46847656 10.81441406 10.23773438 11.39835937 10 12 C7.66666667 9.66666667 5.33333333 7.33333333 3 5 C2.14341797 4.20529297 2.14341797 4.20529297 1.26953125 3.39453125 C0 2 0 2 0 0 Z " fill="#AEA1F0" transform="translate(197,255)"/>
<path d="M0 0 C0.66 0 1.32 0 2 0 C2.33023192 9.63787982 2.46544446 18.81180322 -1 28 C-1.66 28.66 -2.32 29.32 -3 30 C-3 27.36 -3 24.72 -3 22 C-2.67 22 -2.34 22 -2 22 C-0.2958322 16.84053135 0.22225605 12.5574667 0.125 7.0625 C0.11146484 6.03672852 0.11146484 6.03672852 0.09765625 4.99023438 C0.07438958 3.32666713 0.03853167 1.66328369 0 0 Z " fill="#B6C7F3" transform="translate(403,231)"/>
<path d="M0 0 C-0.66 0 -1.32 0 -2 0 C-2 0.99 -2 1.98 -2 3 C-3.32 3 -4.64 3 -6 3 C-6 3.66 -6 4.32 -6 5 C-9.98060777 6.17076699 -13.91621717 7.25749403 -18 8 C-15.42639878 5.0332097 -12.48295779 3.50855222 -9 1.75 C-7.948125 1.20859375 -6.89625 0.6671875 -5.8125 0.109375 C-3 -1 -3 -1 0 0 Z " fill="#A2B5F3" transform="translate(337,234)"/>
<path d="M0 0 C1.60746056 0.42523816 3.21089836 0.86570126 4.8125 1.3125 C6.15248047 1.67794922 6.15248047 1.67794922 7.51953125 2.05078125 C10.08966072 3.03431111 11.23692041 3.93590683 13 6 C13.556875 6.556875 14.11375 7.11375 14.6875 7.6875 C15.120625 8.120625 15.55375 8.55375 16 9 C15.01 9.495 15.01 9.495 14 10 C11.72390931 8.80127864 9.60145838 7.56414091 7.4375 6.1875 C6.83486328 5.81818359 6.23222656 5.44886719 5.61132812 5.06835938 C1.13501913 2.27003827 1.13501913 2.27003827 0 0 Z " fill="#B6A6EF" transform="translate(171,384)"/>
<path d="M0 0 C5.92013241 0.46737887 10.97466002 2.96208261 16 6 C16.33 6.66 16.66 7.32 17 8 C15.68 8 14.36 8 13 8 C12.34 7.34 11.68 6.68 11 6 C9.68 6 8.36 6 7 6 C7 5.34 7 4.68 7 4 C5.35 3.67 3.7 3.34 2 3 C2 2.34 2 1.68 2 1 C1.34 0.67 0.68 0.34 0 0 Z " fill="#B3A9F2" transform="translate(204,311)"/>
<path d="M0 0 C7.82152466 -0.11928251 7.82152466 -0.11928251 10.7109375 2.625 C12.0625 4.5625 12.0625 4.5625 14 8 C10.0397381 7.43726296 7.47032673 6.26476935 4.1875 4 C3.39730469 3.46375 2.60710937 2.9275 1.79296875 2.375 C1.20128906 1.92125 0.60960937 1.4675 0 1 C0 0.67 0 0.34 0 0 Z " fill="#AD9DEE" transform="translate(189,232)"/>
<path d="M0 0 C1.12148438 0.00322266 2.24296875 0.00644531 3.3984375 0.00976562 C4.5740625 0.01814453 5.7496875 0.02652344 6.9609375 0.03515625 C8.14429688 0.03966797 9.32765625 0.04417969 10.546875 0.04882812 C13.47661257 0.06064158 16.40625022 0.07711367 19.3359375 0.09765625 C19.3359375 0.42765625 19.3359375 0.75765625 19.3359375 1.09765625 C6.4659375 2.08765625 6.4659375 2.08765625 -6.6640625 3.09765625 C-6.9940625 2.43765625 -7.3240625 1.77765625 -7.6640625 1.09765625 C-5.00228029 -0.23323485 -2.97666854 -0.01503368 0 0 Z " fill="#697ADE" transform="translate(300.6640625,297.90234375)"/>
<path d="M0 0 C1.32 0.33 2.64 0.66 4 1 C2.41906946 2.12837409 0.83515284 3.25256518 -0.75 4.375 C-1.63171875 5.00148437 -2.5134375 5.62796875 -3.421875 6.2734375 C-5.57414979 7.71480941 -7.65460523 8.91498093 -10 10 C-9.34 9.01 -8.68 8.02 -8 7 C-7.61500109 5.34450469 -7.27206865 3.6777567 -7 2 C-4.69 2 -2.38 2 0 2 C0 1.34 0 0.68 0 0 Z " fill="#ACB6EF" transform="translate(305,234)"/>
<path d="M0 0 C0.33 0 0.66 0 1 0 C1.33 2.31 1.66 4.62 2 7 C2.33 7 2.66 7 3 7 C3 10.96 3 14.92 3 19 C-0.42693234 13.85960149 -1.43665081 8.11311139 -1 2 C-0.67 1.34 -0.34 0.68 0 0 Z " fill="#A7AAF0" transform="translate(258,218)"/>
<path d="M0 0 C0.74507812 0.05220703 1.49015625 0.10441406 2.2578125 0.15820312 C4.08894861 0.2873217 5.91953813 0.42415114 7.75 0.5625 C7.75 0.8925 7.75 1.2225 7.75 1.5625 C-3.14 2.0575 -3.14 2.0575 -14.25 2.5625 C-10.21653448 -1.47096552 -5.33803792 -0.41025556 0 0 Z " fill="#A899EF" transform="translate(206.25,97.4375)"/>
<path d="M0 0 C-1.92946028 1.36707496 -3.86710477 2.71844954 -5.8125 4.0625 C-7.43091797 5.19365234 -7.43091797 5.19365234 -9.08203125 6.34765625 C-10.52642578 7.16556641 -10.52642578 7.16556641 -12 8 C-12.99 7.67 -13.98 7.34 -15 7 C-14.34 6.67 -13.68 6.34 -13 6 C-12.67 5.01 -12.34 4.02 -12 3 C-10.35 3 -8.7 3 -7 3 C-7.33 2.01 -7.66 1.02 -8 0 C-2.25 -1.125 -2.25 -1.125 0 0 Z " fill="#AABAF3" transform="translate(328,386)"/>
<path d="M0 0 C0 3.67034745 -1.0752892 5.0999431 -3 8.1875 C-3.556875 9.08855469 -4.11375 9.98960937 -4.6875 10.91796875 C-5.120625 11.60503906 -5.55375 12.29210937 -6 13 C-6.68707555 10.50935112 -7 8.62113708 -7 6 C-5.5625 4.4375 -5.5625 4.4375 -4 3 C-3.67 2.34 -3.34 1.68 -3 1 C-2.01 0.67 -1.02 0.34 0 0 Z " fill="#ADB3F3" transform="translate(276,265)"/>
<path d="M0 0 C5.7607103 1.29322068 9.33195882 3.37988643 14 7 C12.68 7.33 11.36 7.66 10 8 C10 7.34 10 6.68 10 6 C9.2575 5.87625 8.515 5.7525 7.75 5.625 C5.15128245 5.03438237 3.23554414 4.43713552 1 3 C0.67 2.01 0.34 1.02 0 0 Z " fill="#BCABF1" transform="translate(170,236)"/>
<path d="M0 0 C2 1 2 1 3.11279297 3.24487305 C4.01591438 6.04942042 4.23129138 8.14975285 4.1953125 11.08203125 C4.18886719 12.01337891 4.18242187 12.94472656 4.17578125 13.90429688 C4.15902344 14.86400391 4.14226562 15.82371094 4.125 16.8125 C4.11597656 17.79154297 4.10695313 18.77058594 4.09765625 19.77929688 C4.07417182 22.18645061 4.0413284 24.59309743 4 27 C3.67 27 3.34 27 3 27 C3 20.73 3 14.46 3 8 C2.34 8 1.68 8 1 8 C0.67 5.36 0.34 2.72 0 0 Z " fill="#95AAEB" transform="translate(375,163)"/>
<path d="M0 0 C2.08379509 3.84700632 3.49686624 7.90054429 5 12 C1.77611813 11.06677104 0.33984343 10.58700229 -1.375 7.625 C-2.02453497 4.89695313 -2.0137467 3.58044614 -1 1 C-0.67 0.67 -0.34 0.34 0 0 Z " fill="#9195F2" transform="translate(265,386)"/>
<path d="M0 0 C-3.07999946 3.67230705 -5.2482602 4.56802365 -10 5 C-10 5.66 -10 6.32 -10 7 C-10.99 7 -11.98 7 -13 7 C-13 6.34 -13 5.68 -13 5 C-10.91796875 3.45703125 -10.91796875 3.45703125 -8.1875 1.8125 C-7.29417969 1.26207031 -6.40085938 0.71164063 -5.48046875 0.14453125 C-3 -1 -3 -1 0 0 Z " fill="#BCA5F1" transform="translate(147,144)"/>
<path d="M0 0 C0.66 0.33 1.32 0.66 2 1 C2.33 1.99 2.66 2.98 3 4 C1.35 4 -0.3 4 -2 4 C-2 4.99 -2 5.98 -2 7 C-6.95 7 -11.9 7 -17 7 C-17 6.67 -17 6.34 -17 6 C-16.10796875 5.98582031 -15.2159375 5.97164063 -14.296875 5.95703125 C-12.54117188 5.88548828 -12.54117188 5.88548828 -10.75 5.8125 C-9.00976562 5.76029297 -9.00976562 5.76029297 -7.234375 5.70703125 C-3.21238929 4.82782906 -2.18500716 3.39108784 0 0 Z " fill="#7A70EE" transform="translate(228,393)"/>
<path d="M0 0 C0.66 0 1.32 0 2 0 C2.33 0.66 2.66 1.32 3 2 C3.99 2.33 4.98 2.66 6 3 C6.33 2.34 6.66 1.68 7 1 C7.66 3.31 8.32 5.62 9 8 C8.34 8.66 7.68 9.32 7 10 C5.83043409 8.52312468 4.66441854 7.04343707 3.5 5.5625 C2.8503125 4.73878906 2.200625 3.91507812 1.53125 3.06640625 C0 1 0 1 0 0 Z " fill="#AFA5F3" transform="translate(214,253)"/>
<path d="M0 0 C-3.31604635 1.13047035 -6.60361729 2.15090432 -10 3 C-10.99 3.37125 -11.98 3.7425 -13 4.125 C-16.0858751 5.0250469 -17.05488226 4.90130758 -20 4 C-17.42032203 3.13310822 -14.83723873 2.28126211 -12.25 1.4375 C-11.52039063 1.19064453 -10.79078125 0.94378906 -10.0390625 0.68945312 C-9.33007812 0.46064453 -8.62109375 0.23183594 -7.890625 -0.00390625 C-6.91657715 -0.32597046 -6.91657715 -0.32597046 -5.92285156 -0.65454102 C-3.66555462 -1.06008636 -2.16526518 -0.69296911 0 0 Z " fill="#C1D0F8" transform="translate(357,228)"/>
<path d="M0 0 C-4.49656104 2.24828052 -8.07872966 2.16682272 -13 2 C-13.33 2.66 -13.66 3.32 -14 4 C-15.65 4 -17.3 4 -19 4 C-19 3.34 -19 2.68 -19 2 C-13.29050309 -0.85474845 -6.14618658 -1.88785869 0 0 Z " fill="#B79EF1" transform="translate(116,227)"/>
<path d="M0 0 C1.32 0.33 2.64 0.66 4 1 C2.6062718 5.43458973 0.39417765 7.87378374 -3 11 C-3.66 10.67 -4.32 10.34 -5 10 C-4.54625 9.649375 -4.0925 9.29875 -3.625 8.9375 C-1.35338666 6.22903794 -0.83201146 3.39204672 0 0 Z " fill="#9EB5F5" transform="translate(371,201)"/>
<path d="M0 0 C1.34201604 2.68403208 0.70405525 3.7430131 -0.1875 6.5625 C-0.42855469 7.36816406 -0.66960937 8.17382812 -0.91796875 9.00390625 C-2 11 -2 11 -4.11328125 11.77734375 C-5.04720703 11.88755859 -5.04720703 11.88755859 -6 12 C-5.32505119 7.78156993 -3.01938931 3.01938931 0 0 Z " fill="#BEA6F1" transform="translate(129,155)"/>
<path d="M0 0 C0.66 0.33 1.32 0.66 2 1 C0.64486335 5.06540996 -1.30796918 5.97300269 -5 8 C-6.32 7.67 -7.64 7.34 -9 7 C-6.03 4.69 -3.06 2.38 0 0 Z " fill="#A6B0F4" transform="translate(317,242)"/>
<path d="M0 0 C2.125 0 2.125 0 5 1 C7.25484692 3.49775783 9.14265083 6.19801963 11 9 C8.03469503 7.64199529 5.70868729 6.07571737 3.25 3.9375 C2.63640625 3.41027344 2.0228125 2.88304687 1.390625 2.33984375 C0.93171875 1.89769531 0.4728125 1.45554687 0 1 C0 0.67 0 0.34 0 0 Z " fill="#C6B6F2" transform="translate(160,375)"/>
<path d="M0 0 C3 0 3 0 5 1 C3.72144088 3.55711823 2.13790481 5.11361341 0 7 C-0.99 7 -1.98 7 -3 7 C-1.125 1.125 -1.125 1.125 0 0 Z " fill="#A486F5" transform="translate(146,323)"/>
<path d="M0 0 C0.66 0.33 1.32 0.66 2 1 C-0.26686035 4.57925318 -2.10870857 5.51760327 -6 7 C-7.70294787 8.28667172 -9.37946188 9.61096733 -11 11 C-9.52202738 7.32943063 -7.52384523 5.58914217 -4.375 3.25 C-3.55773437 2.63640625 -2.74046875 2.0228125 -1.8984375 1.390625 C-0.95871094 0.70226562 -0.95871094 0.70226562 0 0 Z " fill="#BEC4F6" transform="translate(280,317)"/>
<path d="M0 0 C-1.65 0.33 -3.3 0.66 -5 1 C-5 1.66 -5 2.32 -5 3 C-8.52948291 4.66670026 -10.28272326 5.13583456 -14 4 C-12.42466914 3.13116294 -10.83935491 2.28040932 -9.25 1.4375 C-8.36828125 0.96183594 -7.4865625 0.48617188 -6.578125 -0.00390625 C-3.79298812 -1.07998186 -2.73019786 -1.06528748 0 0 Z " fill="#C8B9F4" transform="translate(170,310)"/>
<path d="M0 0 C0.66 0.33 1.32 0.66 2 1 C2.625 3.5625 2.625 3.5625 3 6 C1.02 6.99 -0.96 7.98 -3 9 C-2.67 6.69 -2.34 4.38 -2 2 C-1.34 2 -0.68 2 0 2 C0 1.34 0 0.68 0 0 Z " fill="#A07EF1" transform="translate(132,151)"/>
<path d="M0 0 C0.66 0 1.32 0 2 0 C2.08131463 1.43655854 2.13933559 2.8744483 2.1875 4.3125 C2.23970703 5.51326172 2.23970703 5.51326172 2.29296875 6.73828125 C1.93801608 9.47851584 1.10633718 10.29171079 -1 12 C-1.02698189 10.37509046 -1.04638757 8.75005367 -1.0625 7.125 C-1.07410156 6.22007813 -1.08570313 5.31515625 -1.09765625 4.3828125 C-1 2 -1 2 0 0 Z " fill="#7076EE" transform="translate(258,117)"/>
<path d="M0 0 C0.66 0.33 1.32 0.66 2 1 C4.00800456 0.71887936 6.01014051 0.38932033 8 0 C5.19195732 2.96404505 2.81684226 5.44499019 -1 7 C-0.67 4.69 -0.34 2.38 0 0 Z " fill="#CCD0F5" transform="translate(264,313)"/>
<path d="M0 0 C0.99 0 1.98 0 3 0 C3.66 1.32 4.32 2.64 5 4 C4.01 4.495 4.01 4.495 3 5 C2.01 6.485 2.01 6.485 1 8 C0.67 7.01 0.34 6.02 0 5 C-0.66 5 -1.32 5 -2 5 C-1.34 3.35 -0.68 1.7 0 0 Z " fill="#9D7FF3" transform="translate(153,361)"/>
<path d="M0 0 C0.33 0 0.66 0 1 0 C0.73781251 4.4571874 0.42288711 6.51522698 -2.5625 9.9375 C-3.366875 10.618125 -4.17125 11.29875 -5 12 C-3.86279638 7.53866273 -2.64540851 3.79558613 0 0 Z " fill="#B8BCF2" transform="translate(273,292)"/>
<path d="M0 0 C4.12751449 0.60698743 7.3321148 2.03810791 11 4 C11 4.66 11 5.32 11 6 C9.68 6.33 8.36 6.66 7 7 C7 6.34 7 5.68 7 5 C6.34 5 5.68 5 5 5 C3.5 3.625 3.5 3.625 2 2 C1.34 1.34 0.68 0.68 0 0 Z M5 7 C7 8 7 8 7 8 Z " fill="#AABAF6" transform="translate(308,100)"/>
<path d="M0 0 C1.98 0 3.96 0 6 0 C6 0.66 6 1.32 6 2 C0.70588235 6 0.70588235 6 -3 6 C-3 5.01 -3 4.02 -3 3 C-1.68 2.67 -0.36 2.34 1 2 C0.67 1.34 0.34 0.68 0 0 Z " fill="#AFA9F4" transform="translate(229,394)"/>
<path d="M0 0 C3.93846154 3.32307692 3.93846154 3.32307692 4.25 6.75 C4.1675 7.4925 4.085 8.235 4 9 C4.66 9 5.32 9 6 9 C6 10.65 6 12.3 6 14 C2.44188906 9.59471979 0 5.75487737 0 0 Z " fill="#C2AFF3" transform="translate(143,347)"/>
<path d="M0 0 C-1.78953185 0.83790789 -3.58169695 1.67019396 -5.375 2.5 C-6.87160156 3.19609375 -6.87160156 3.19609375 -8.3984375 3.90625 C-11 5 -11 5 -13 5 C-13.33 4.01 -13.66 3.02 -14 2 C-12.02 2 -10.04 2 -8 2 C-8 1.34 -8 0.68 -8 0 C-4.71303767 -0.79953138 -3.28976808 -1.09658936 0 0 Z " fill="#BAC0F6" transform="translate(291,304)"/>
<path d="M0 0 C1.79133978 -0.05391993 3.58313899 -0.09275571 5.375 -0.125 C6.37273437 -0.14820313 7.37046875 -0.17140625 8.3984375 -0.1953125 C11 0 11 0 13 2 C4.57142857 3.42857143 4.57142857 3.42857143 0 1 C0 0.67 0 0.34 0 0 Z " fill="#7F70F0" transform="translate(215,304)"/>
<path d="M0 0 C0.33 0.66 0.66 1.32 1 2 C-1.45614035 7 -1.45614035 7 -3 9 C-3.99 9.33 -4.98 9.66 -6 10 C-6 9.01 -6 8.02 -6 7 C-5.34 7 -4.68 7 -4 7 C-3.896875 6.401875 -3.79375 5.80375 -3.6875 5.1875 C-2.91123545 2.71756736 -1.92911079 1.67748765 0 0 Z " fill="#9DA2EF" transform="translate(280,282)"/>
<path d="M0 0 C0.33 0 0.66 0 1 0 C1.33 4.62 1.66 9.24 2 14 C-1.33785639 9.54952481 -1.38736291 8.32624 -1 3 C-0.67 2.01 -0.34 1.02 0 0 Z " fill="#B69DEF" transform="translate(122,186)"/>
<path d="M0 0 C-0.33 0.99 -0.66 1.98 -1 3 C-2.32 3 -3.64 3 -5 3 C-5 3.66 -5 4.32 -5 5 C-6.98 5.33 -8.96 5.66 -11 6 C-7.57865372 2.33427184 -5.14341528 0 0 0 Z " fill="#BDADF0" transform="translate(192,100)"/>
<path d="M0 0 C0.33 0 0.66 0 1 0 C1 1.98 1 3.96 1 6 C0.34 6 -0.32 6 -1 6 C-1.33 9.3 -1.66 12.6 -2 16 C-2.33 16 -2.66 16 -3 16 C-3.37952295 9.80112515 -2.8352113 5.5522888 0 0 Z " fill="#7479E6" transform="translate(262,345)"/>
<path d="M0 0 C0.66 0 1.32 0 2 0 C2 0.66 2 1.32 2 2 C3.32 2.66 4.64 3.32 6 4 C6 4.99 6 5.98 6 7 C4.02 6.01 2.04 5.02 0 4 C-0.33 4.99 -0.66 5.98 -1 7 C-1.125 2.25 -1.125 2.25 0 0 Z " fill="#97ADF5" transform="translate(347,317)"/>
<path d="M0 0 C-3.0684847 2.97550031 -4.46236331 3.96474513 -8.8125 4.25 C-9.864375 4.1675 -10.91625 4.085 -12 4 C-8.47340299 0.47340299 -4.89254977 -0.27957427 0 0 Z " fill="#88A2EA" transform="translate(355,217)"/>
<path d="M0 0 C0 0.99 0 1.98 0 3 C-3.90028225 5.60018816 -7.47434569 5.15085514 -12 5 C-11.67 4.34 -11.34 3.68 -11 3 C-8.75 2.40234375 -8.75 2.40234375 -6 1.9375 C-2.69940294 1.5954649 -2.69940294 1.5954649 0 0 Z " fill="#CDBAF5" transform="translate(159,138)"/>
<path d="M0 0 C0.66 0.33 1.32 0.66 2 1 C1.67 1.66 1.34 2.32 1 3 C1.66 3 2.32 3 3 3 C1.25 7.875 1.25 7.875 -1 9 C-1.625 6.1875 -1.625 6.1875 -2 3 C-1.34 2.01 -0.68 1.02 0 0 Z " fill="#9993F1" transform="translate(236,385)"/>
<path d="M0 0 C1.35439668 2.70879335 1.06501451 5.00933268 1 8 C0.01 8.495 0.01 8.495 -1 9 C-1.66 8.67 -2.32 8.34 -3 8 C-2.25 2.25 -2.25 2.25 0 0 Z " fill="#9DA4F4" transform="translate(268,328)"/>
<path d="M0 0 C0.99 0.33 1.98 0.66 3 1 C2.01 1.33 1.02 1.66 0 2 C-1.09166275 3.93330603 -1.09166275 3.93330603 -2 6 C-2.66 6.66 -3.32 7.32 -4 8 C-4.66 8 -5.32 8 -6 8 C-4.55746343 4.63408134 -2.66735273 2.48952921 0 0 Z " fill="#7179E9" transform="translate(275,322)"/>
<path d="M0 0 C0.33 0 0.66 0 1 0 C1 3.63 1 7.26 1 11 C0.01 11.33 -0.98 11.66 -2 12 C-2.26252625 7.66831683 -1.29243536 4.1196377 0 0 Z " fill="#85A0EF" transform="translate(399,254)"/>
<path d="M0 0 C3.16115776 1.36983503 3.9927092 1.9890638 6 5 C6 6.32 6 7.64 6 9 C6.66 9.33 7.32 9.66 8 10 C6.68 9.67 5.36 9.34 4 9 C3.67 7.02 3.34 5.04 3 3 C2.01 3 1.02 3 0 3 C0 2.01 0 1.02 0 0 Z " fill="#7C95EE" transform="translate(319,106)"/>
<path d="M0 0 C2.73704754 2.73704754 3.16182449 5.26044774 4 9 C3.625 11.4375 3.625 11.4375 3 13 C0.89172945 9.83759418 0.66182535 8.49342531 0.375 4.8125 C0.30023438 3.91144531 0.22546875 3.01039063 0.1484375 2.08203125 C0.09945312 1.39496094 0.05046875 0.70789063 0 0 Z " fill="#BEB9F3" transform="translate(237,339)"/>
<path d="M0 0 C2.09350689 3.4019487 2.17942163 6.05272412 2 10 C1.34 10 0.68 10 0 10 C-2.21538462 4.58461538 -2.21538462 4.58461538 -1.125 1.625 C-0.75375 1.08875 -0.3825 0.5525 0 0 Z " fill="#D8D5F1" transform="translate(239,285)"/>
<path d="M0 0 C0.66 0 1.32 0 2 0 C0.68775452 3.93673644 -0.91910327 6.22719294 -4 9 C-3.67 6.36 -3.34 3.72 -3 1 C-2.01 1.33 -1.02 1.66 0 2 C0 1.34 0 0.68 0 0 Z " fill="#9DB9F2" transform="translate(390,278)"/>
<path d="M0 0 C0.99 0.33 1.98 0.66 3 1 C3 1.66 3 2.32 3 3 C3.66 3 4.32 3 5 3 C5.33 4.65 5.66 6.3 6 8 C2.24623848 6.74874616 1.75926711 5.4347596 0 2 C0 1.34 0 0.68 0 0 Z " fill="#B9B0F1" transform="translate(222,263)"/>
<path d="M0 0 C0.99 0 1.98 0 3 0 C3 0.66 3 1.32 3 2 C5.475 2.99 5.475 2.99 8 4 C7.67 4.66 7.34 5.32 7 6 C4.03 5.505 4.03 5.505 1 5 C0.67 3.35 0.34 1.7 0 0 Z " fill="#C3B5F5" transform="translate(184,244)"/>
<path d="M0 0 C0.309375 0.928125 0.309375 0.928125 0.625 1.875 C2.54775888 4.84653645 4.66594527 5.13024659 8 6 C8 6.33 8 6.66 8 7 C5.03 6.67 2.06 6.34 -1 6 C-1.33 4.35 -1.66 2.7 -2 1 C-1.34 0.67 -0.68 0.34 0 0 Z " fill="#B0C6FB" transform="translate(339,134)"/>
<path d="M0 0 C2.63249349 2.45699392 4.78137264 4.56568654 6 8 C5.67 8.99 5.34 9.98 5 11 C5 10.34 5 9.68 5 9 C4.01 8.67 3.02 8.34 2 8 C1.26953125 6.15234375 1.26953125 6.15234375 0.8125 3.9375 C0.65394531 3.20402344 0.49539062 2.47054687 0.33203125 1.71484375 C0.22246094 1.14894531 0.11289063 0.58304687 0 0 Z " fill="#BAB5F4" transform="translate(237,107)"/>
<path d="M0 0 C0.33 0 0.66 0 1 0 C1.125 7.75 1.125 7.75 0 10 C-0.66 10 -1.32 10 -2 10 C-1.54177532 6.53058454 -1.10868317 3.32604951 0 0 Z " fill="#87A2E9" transform="translate(356,343)"/>
<path d="M0 0 C3.057952 1.73559438 5.63379989 3.38472619 8 6 C7.67 6.66 7.34 7.32 7 8 C5.68 7.67 4.36 7.34 3 7 C2.87625 6.360625 2.7525 5.72125 2.625 5.0625 C2.315625 4.0415625 2.315625 4.0415625 2 3 C1.34 2.67 0.68 2.34 0 2 C0 1.34 0 0.68 0 0 Z " fill="#C2BFF8" transform="translate(223,320)"/>
<path d="M0 0 C0.99 0 1.98 0 3 0 C3 1.98 3 3.96 3 6 C2.01 6.33 1.02 6.66 0 7 C0 4.69 0 2.38 0 0 Z " fill="#8981F3" transform="translate(220,319)"/>
<path d="M0 0 C2.64 0 5.28 0 8 0 C5.37801226 2.15377564 3.35595828 3.40072174 0 4 C0 2.68 0 1.36 0 0 Z " fill="#9BB1F3" transform="translate(310,229)"/>
<path d="M0 0 C2.97 0.33 5.94 0.66 9 1 C8.01 1.495 8.01 1.495 7 2 C7 2.66 7 3.32 7 4 C7.66 4.33 8.32 4.66 9 5 C8.01 5 7.02 5 6 5 C6 4.34 6 3.68 6 3 C4.35 3 2.7 3 1 3 C0.67 2.01 0.34 1.02 0 0 Z " fill="#9D7AF3" transform="translate(125,202)"/>
<path d="M0 0 C2.97 0.33 5.94 0.66 9 1 C9 1.99 9 2.98 9 4 C5.65626525 3.44271087 2.96687001 2.64826111 0 1 C0 0.67 0 0.34 0 0 Z " fill="#C1B5F2" transform="translate(187,394)"/>
<path d="M0 0 C0.99 0.99 1.98 1.98 3 3 C1.71937515 4.7074998 0.38232443 6.37373596 -1 8 C-1.66 8 -2.32 8 -3 8 C-2.625 5.5625 -2.625 5.5625 -2 3 C-1.34 2.67 -0.68 2.34 0 2 C0 1.34 0 0.68 0 0 Z " fill="#7973F1" transform="translate(229,327)"/>
<path d="M0 0 C0.66 0.33 1.32 0.66 2 1 C-0.35519526 4.79448125 -2.9630133 6.20578369 -7 8 C-6.34 6.68 -5.68 5.36 -5 4 C-4.34 4 -3.68 4 -3 4 C-3 3.34 -3 2.68 -3 2 C-2.01 1.34 -1.02 0.68 0 0 Z " fill="#C7B6F4" transform="translate(154,315)"/>
<path d="M0 0 C2 2 2 2 2.125 4.625 C2.08375 5.40875 2.0425 6.1925 2 7 C-1.16115776 5.63016497 -1.9927092 5.0109362 -4 2 C-3.01 2.33 -2.02 2.66 -1 3 C-0.67 2.01 -0.34 1.02 0 0 Z " fill="#D8D5F5" transform="translate(235,313)"/>
<path d="M0 0 C1.32 0 2.64 0 4 0 C4 3.51716303 3.17554415 4.37121748 1 7 C0.34 6.67 -0.32 6.34 -1 6 C-0.67 4.02 -0.34 2.04 0 0 Z " fill="#BABFF6" transform="translate(283,251)"/>
<path d="M0 0 C0 0.99 0 1.98 0 3 C-2.31 2.67 -4.62 2.34 -7 2 C-7 1.34 -7 0.68 -7 0 C-3.86650268 -1.04449911 -3.01031744 -0.93423645 0 0 Z " fill="#8B62F8" transform="translate(144,149)"/>
<path d="M0 0 C0.68707555 2.49064888 1 4.37886292 1 7 C0.01 7 -0.98 7 -2 7 C-2.33 7.66 -2.66 8.32 -3 9 C-2.5020163 5.26512223 -2.12508244 3.18762365 0 0 Z " fill="#B2B3F3" transform="translate(260,110)"/>
<path d="M0 0 C1 2 1 2 0.44140625 3.9453125 C0.15136719 4.66460937 -0.13867188 5.38390625 -0.4375 6.125 C-0.72496094 6.84945313 -1.01242187 7.57390625 -1.30859375 8.3203125 C-1.53675781 8.87460937 -1.76492188 9.42890625 -2 10 C-2.66 9.34 -3.32 8.68 -4 8 C-2.25 2.25 -2.25 2.25 0 0 Z " fill="#767BED" transform="translate(271,301)"/>
<path d="M0 0 C1.00289063 0.10183594 2.00578125 0.20367187 3.0390625 0.30859375 C3.80992187 0.39238281 4.58078125 0.47617187 5.375 0.5625 C5.375 0.8925 5.375 1.2225 5.375 1.5625 C-0.565 2.0575 -0.565 2.0575 -6.625 2.5625 C-6.955 1.9025 -7.285 1.2425 -7.625 0.5625 C-4.89657939 -0.80171031 -3.01546682 -0.31557211 0 0 Z " fill="#7681E7" transform="translate(300.625,298.4375)"/>
<path d="M0 0 C2.31 0 4.62 0 7 0 C7 0.66 7 1.32 7 2 C5.02 2.66 3.04 3.32 1 4 C0.67 2.68 0.34 1.36 0 0 Z " fill="#91ABF5" transform="translate(357,213)"/>
<path d="M0 0 C0.66 0.33 1.32 0.66 2 1 C0.12050295 4.57104439 -1.17053157 6.54744301 -5 8 C-4 6 -3 4 -2 2 C-1.34 2 -0.68 2 0 2 C0 1.34 0 0.68 0 0 Z " fill="#CDBCF4" transform="translate(173,111)"/>
<path d="M0 0 C6.15234375 0.5859375 6.15234375 0.5859375 8 1 C8.33 1.66 8.66 2.32 9 3 C5.25 4.125 5.25 4.125 3 3 C3 2.34 3 1.68 3 1 C2.01 0.67 1.02 0.34 0 0 Z " fill="#BEB7F4" transform="translate(219,97)"/>
<path d="M0 0 C-3.44069624 2.29379749 -4.72290301 3 -9 3 C-9 2.34 -9 1.68 -9 1 C-2.25 -1.125 -2.25 -1.125 0 0 Z " fill="#BDCAF4" transform="translate(313,395)"/>
<path d="M0 0 C0 0.66 0 1.32 0 2 C-2.31 2.33 -4.62 2.66 -7 3 C-6.67 2.01 -6.34 1.02 -6 0 C-3.42525708 -0.99667468 -2.51072708 -1.25536354 0 0 Z " fill="#6F7CED" transform="translate(304,396)"/>
<path d="M0 0 C0.66 0.66 1.32 1.32 2 2 C1.75 4.5625 1.75 4.5625 1 7 C0.01 7.495 0.01 7.495 -1 8 C-1.125 2.25 -1.125 2.25 0 0 Z " fill="#6D76F7" transform="translate(261,351)"/>
<path d="M0 0 C1.27875 -0.061875 2.5575 -0.12375 3.875 -0.1875 C4.95394531 -0.23970703 4.95394531 -0.23970703 6.0546875 -0.29296875 C6.69664062 -0.19628906 7.33859375 -0.09960938 8 0 C8.66 0.99 9.32 1.98 10 3 C3.375 2.25 3.375 2.25 0 0 Z " fill="#C8B6F3" transform="translate(131,300)"/>
<path d="M0 0 C0.66 0 1.32 0 2 0 C2.36923077 4.55384615 2.36923077 4.55384615 0.5 6.8125 C0.005 7.204375 -0.49 7.59625 -1 8 C-1.66 7.67 -2.32 7.34 -3 7 C-2.34 6.34 -1.68 5.68 -1 5 C-0.35232207 2.42938689 -0.35232207 2.42938689 0 0 Z " fill="#A1ABF6" transform="translate(298,236)"/>
</svg>
